# Blender v3.1.2 OBJ File: ''
# www.blender.org
mtllib bartable.mtl
o Theke_Mesh.001
v 0.033413 0.001303 0.364680
v 0.324377 0.001303 -0.067014
v 0.718454 0.001303 0.129289
v 0.033413 0.414808 0.364680
v -1.119214 0.001303 0.364680
v -1.119214 0.414808 0.364680
v 0.198238 0.414808 0.885255
v -1.119214 0.001302 0.885255
v 0.198238 0.001302 0.885255
v 0.718454 0.414808 0.129289
v 0.718454 0.001303 -1.228923
v 0.718454 0.414808 -1.228923
v 0.324377 0.414808 -0.067014
v 0.324377 0.001303 -1.228923
v 0.324377 0.414808 -1.228923
v -1.119214 0.414808 0.885255
v 0.816536 0.414808 0.180194
v 0.240911 0.462044 1.014679
v 0.240911 0.414808 1.014679
v 0.226191 0.414808 -0.117196
v 0.245813 0.414808 -1.333676
v 0.797019 0.414808 -1.333676
v -0.009799 0.414808 0.235441
v -1.197779 0.414808 0.259928
v 0.816536 0.462044 0.180194
v 0.226191 0.462044 -0.117196
v -0.009799 0.462044 0.235441
v 0.245813 0.462045 -1.333676
v -1.197779 0.462044 0.990007
v -1.197779 0.414808 0.990007
v 0.797019 0.462045 -1.333676
v -1.197779 0.462044 0.259928
vt 0.022222 0.482811
vt 0.022222 0.482811
vt 0.022222 0.482811
vt 0.022222 0.482811
vt 0.022222 0.482811
vt 0.022222 0.482811
vt 0.022222 0.482811
vt 0.022222 0.482811
vt 0.022222 0.482811
vt 0.022222 0.482811
vt 0.022222 0.482811
vt 0.022222 0.482811
vt 0.022222 0.482811
vt 0.022222 0.482811
vt 0.022222 0.482811
vt 0.022222 0.482811
vt 0.022222 0.482811
vt 0.022222 0.482811
vt 0.022222 0.482811
vt 0.022222 0.482811
vt 0.022222 0.482811
vt 0.022222 0.482811
vt 0.022222 0.482811
vt 0.022222 0.482811
vt 0.022222 0.482811
vt 0.022222 0.482811
vt 0.022222 0.482811
vt 0.022222 0.482811
vt 0.022222 0.482811
vt 0.022222 0.482811
vt 0.022222 0.482811
vt 0.022222 0.482811
vn -0.0000 -1.0000 -0.0000
vn 0.0000 0.0000 -1.0000
vn 0.0000 -0.0000 1.0000
vn 1.0000 0.0000 0.0000
vn -0.8292 0.0000 -0.5589
vn -1.0000 0.0000 0.0000
vn 0.8238 -0.0000 0.5669
vn 0.8232 0.0000 0.5678
vn 0.0000 1.0000 0.0000
vn -0.9999 0.0000 -0.0161
vn -0.0171 0.0000 0.9999
vn 0.9999 0.0000 -0.0129
vn -0.0206 0.0000 -0.9998
vn -0.8311 0.0000 -0.5562
usemtl Material.003
s off
f 1/1/1 2/2/1 3/3/1
f 4/4/2 5/5/2 6/6/2
f 7/7/3 8/8/3 9/9/3
f 10/10/4 11/11/4 12/12/4
f 13/13/5 1/1/5 4/4/5
f 14/14/6 13/13/6 15/15/6
f 12/12/2 14/14/2 15/15/2
f 9/9/7 10/10/7 7/7/7
f 6/6/6 8/8/6 16/16/6
f 17/17/8 18/18/8 19/19/8
f 15/15/1 20/20/1 21/21/1
f 15/15/1 22/22/1 12/12/1
f 6/6/1 23/23/1 4/4/1
f 13/13/1 23/23/1 20/20/1
f 16/16/1 24/24/1 6/6/1
f 25/25/9 26/26/9 27/27/9
f 20/20/10 28/28/10 21/21/10
f 19/19/11 29/29/11 30/30/11
f 21/21/2 31/31/2 22/22/2
f 22/22/12 25/25/12 17/17/12
f 24/24/13 27/27/13 23/23/13
f 23/23/14 26/26/14 20/20/14
f 30/30/6 32/32/6 24/24/6
f 8/8/1 5/5/1 1/1/1
f 2/2/1 14/14/1 11/11/1
f 9/9/1 8/8/1 1/1/1
f 2/2/1 11/11/1 3/3/1
f 9/9/1 1/1/1 3/3/1
f 4/4/2 1/1/2 5/5/2
f 7/7/3 16/16/3 8/8/3
f 10/10/4 3/3/4 11/11/4
f 13/13/5 2/2/5 1/1/5
f 14/14/6 2/2/6 13/13/6
f 12/12/2 11/11/2 14/14/2
f 9/9/7 3/3/7 10/10/7
f 6/6/6 5/5/6 8/8/6
f 17/17/8 25/25/8 18/18/8
f 15/15/1 13/13/1 20/20/1
f 15/15/1 21/21/1 22/22/1
f 6/6/1 24/24/1 23/23/1
f 13/13/1 4/4/1 23/23/1
f 16/16/1 30/30/1 24/24/1
f 32/32/9 29/29/9 27/27/9
f 29/29/9 18/18/9 27/27/9
f 18/18/9 25/25/9 27/27/9
f 25/25/9 31/31/9 26/26/9
f 31/31/9 28/28/9 26/26/9
f 20/20/10 26/26/10 28/28/10
f 19/19/11 18/18/11 29/29/11
f 21/21/2 28/28/2 31/31/2
f 22/22/12 31/31/12 25/25/12
f 24/24/13 32/32/13 27/27/13
f 23/23/14 27/27/14 26/26/14
f 30/30/6 29/29/6 32/32/6
usemtl Material.004
f 7/7/1 17/17/1 19/19/1
f 16/16/1 19/19/1 30/30/1
f 12/12/1 17/17/1 10/10/1
f 7/7/1 10/10/1 17/17/1
f 16/16/1 7/7/1 19/19/1
f 12/12/1 22/22/1 17/17/1
